<svg width="394" height="85" viewBox="0 0 394 85" fill="none" xmlns="http://www.w3.org/2000/svg">
<g clip-path="url(#clip0_265_1352)">
<path d="M8.63977 52.7546C6.67977 52.3745 5.12977 51.9746 3.99977 51.5646L1.75977 37.1346H2.16977C3.38977 41.7846 5.38977 45.3846 8.15977 47.9346C10.9398 50.4846 14.3798 51.7646 18.4898 51.7646C21.5098 51.7646 23.8398 51.0746 25.4698 49.6946C27.0998 48.3146 27.9098 46.4346 27.9098 44.0346C27.9098 41.5046 26.8998 39.2746 24.8998 37.3246C22.8898 35.3846 19.4498 33.4146 14.5698 31.4345C9.32977 29.3145 5.59977 27.1346 3.35977 24.8946C1.12977 22.6546 0.00976562 20.1245 0.00976562 17.2745C0.00976562 14.7045 0.789766 12.3346 2.34977 10.1646C3.90977 7.99455 6.09977 6.27455 8.91977 4.98455C11.7398 3.69455 14.9798 3.05455 18.6398 3.05455C22.2998 3.05455 25.6598 3.57455 28.9998 4.61455L30.2098 0.164551H30.5498V15.6046H30.2098C29.4898 11.9446 27.9998 9.09455 25.7398 7.03455C23.4798 4.98455 20.5498 3.95455 16.9398 3.95455C13.5998 3.95455 10.9498 4.73455 8.97976 6.29455C7.01976 7.85455 6.02977 9.96455 6.02977 12.6246C6.02977 15.2846 7.01977 17.4045 9.00977 19.3645C10.9998 21.3246 14.2698 23.2346 18.8298 25.0846C23.6198 26.9846 27.0998 29.0445 29.2998 31.2845C31.4898 33.5246 32.5898 36.1546 32.5898 39.1746C32.5898 41.7046 31.8998 44.0446 30.5198 46.1846C29.1398 48.3346 27.1098 50.0546 24.4198 51.3646C21.7298 52.6746 18.5398 53.3246 14.8398 53.3246C12.6698 53.3246 10.6098 53.1346 8.63977 52.7446V52.7546Z" fill="white"/>
<path d="M40.3696 36.6047V5.78473L36.0996 4.43473V4.09473H52.1496V4.43473L47.5396 5.78473V35.6547C47.5396 39.6747 48.7596 42.6947 51.1996 44.7347C53.6396 46.7647 57.4996 47.7847 62.7796 47.7847C68.0596 47.7847 72.0996 46.8047 74.3596 44.8347C76.6196 42.8747 77.7496 39.7447 77.7496 35.4547V25.9747C77.7496 20.6047 77.4096 16.4647 76.7296 13.5747C76.0496 10.6847 75.0696 8.63473 73.7796 7.41473C72.4896 6.19473 70.6996 5.29473 68.3996 4.70473L67.3796 4.43473V4.09473H82.8896V4.43473L78.5596 5.78473V35.5147C78.5596 41.4747 76.9696 45.9347 73.7796 48.8947C70.5996 51.8547 65.7296 53.3347 59.1796 53.3347C46.6296 53.3347 40.3496 47.7547 40.3496 36.6047H40.3696Z" fill="white"/>
<path d="M85.4102 51.9747L90.0802 50.6247V5.78473L85.4102 4.43473V4.09473H106.27C111.33 4.09473 115.12 4.99473 117.65 6.80473C120.18 8.61473 121.44 11.0047 121.44 13.9847C121.44 16.6447 120.55 18.8347 118.76 20.5547C116.98 22.2747 114.77 23.4647 112.16 24.1447V24.2847C115.82 24.8247 118.9 26.2847 121.41 28.6547C123.92 31.0247 125.17 34.1947 125.17 38.1747C125.17 40.9247 124.5 43.3647 123.17 45.4947C121.84 47.6147 119.86 49.2847 117.24 50.5047C114.62 51.7247 111.46 52.3347 107.76 52.3347H85.4102V51.9947V51.9747ZM105.39 25.8347C108.19 25.8347 110.44 24.9247 112.13 23.0947C113.82 21.2647 114.67 18.5947 114.67 15.0647C114.67 11.5347 113.82 9.01473 112.13 7.34473C110.44 5.67473 108.14 4.83473 105.25 4.83473H97.1902V25.8347H105.39ZM106.14 51.5747C109.75 51.5747 112.61 50.5047 114.71 48.3547C116.81 46.2147 117.86 43.1547 117.86 39.1747C117.86 35.1947 116.75 31.9947 114.54 29.8247C112.33 27.6547 109.35 26.5747 105.6 26.5747H97.2001V51.5647H106.14V51.5747Z" fill="white"/>
<path d="M137.019 6.73447L134.849 26.2445C134.259 31.7945 133.969 35.9545 133.969 38.7045C133.969 41.9545 134.259 44.4545 134.849 46.1845C135.439 47.9245 136.289 49.1845 137.419 49.9745C138.549 50.7645 140.129 51.3645 142.159 51.7745L143.309 51.9745V52.3145H126.709V51.9745L131.039 50.6245L136.259 6.05447L131.179 4.42447V4.08447H143.369L159.829 43.0945L176.379 4.08447H187.279V4.42447L182.339 5.77447L187.349 50.6145L191.679 51.9645V52.3045H175.089V51.9645L180.169 50.6145L175.499 8.14447L157.139 54.0645H156.999L137.019 6.73447Z" fill="white"/>
<path d="M191.549 51.9745L194.939 50.6245L214.649 2.87451H214.789L235.849 50.6245L239.169 51.9745V52.3145H223.189V51.9745L228.069 50.6245L220.279 32.6745H203.349C201.089 38.5045 199.959 42.8145 199.959 45.6145C199.959 47.5145 200.439 48.9045 201.419 49.7845C202.389 50.6645 203.939 51.3345 206.059 51.7845L207.209 51.9845V52.3245H191.559V51.9845L191.549 51.9745ZM219.929 31.8545L211.529 12.4145L204.489 29.7545L203.679 31.8545H219.939H219.929Z" fill="white"/>
<path d="M274.62 51.9047C273.83 51.3647 273.05 50.4747 272.28 49.2247C271.51 47.9847 270.54 46.1647 269.37 43.7747L261.78 27.8547H251.28V50.6147L256.02 51.9647V52.3047H239.42V51.9647L244.1 50.6147V5.78473L239.42 4.43473V4.09473H258.73C264.64 4.09473 269.02 5.04473 271.87 6.93473C274.72 8.82473 276.14 11.3847 276.14 14.5847C276.14 17.3447 275.18 19.5947 273.26 21.3547C271.34 23.1147 268.84 24.3547 265.77 25.0847V25.1547L277.35 44.0547C278.75 46.3547 279.95 47.8947 280.94 48.6647C281.93 49.4347 283.02 49.8147 284.19 49.8147C285.05 49.8147 286.04 49.6147 287.17 49.2047V49.6747L284.19 50.8247C282.47 51.5047 281.14 51.9847 280.19 52.2847C279.24 52.5847 278.29 52.7247 277.35 52.7247C276.31 52.7247 275.4 52.4547 274.61 51.9147L274.62 51.9047ZM258.53 27.0447C261.6 27.0447 264.12 26.0247 266.08 23.9947C268.04 21.9647 269.03 19.2747 269.03 15.9347C269.03 12.5947 268.05 9.85473 266.08 7.84473C264.12 5.83473 261.58 4.83473 258.46 4.83473H251.28V27.0547H258.53V27.0447Z" fill="white"/>
<path d="M286.85 51.9747L291.52 50.6247V5.78473L286.85 4.43473V4.09473H303.38V4.43473L298.71 5.78473V50.6247L303.38 51.9747V52.3147H286.85V51.9747Z" fill="white"/>
<path d="M311.429 6.86471L311.499 22.1747C311.549 29.9447 312.019 35.8447 312.919 39.8847C313.819 43.9247 315.119 46.7647 316.819 48.3847C318.509 50.0147 320.849 51.1447 323.829 51.7747L324.779 51.9747V52.3147H305.949V51.9747L310.629 50.6247V6.45471L305.949 4.42471V4.08471H318.409L349.229 42.2147V28.1247C349.229 22.2047 348.839 17.6047 348.049 14.3047C347.259 11.0047 346.159 8.67471 344.759 7.29471C343.359 5.91471 341.529 5.02471 339.269 4.61471L338.189 4.41471V4.07471H354.719V4.41471L350.049 5.76471V53.8047H349.779L311.429 6.86471Z" fill="white"/>
<path d="M357.289 51.9746L361.969 50.6246V5.78455L357.289 4.43455V4.09455H386.689L387.439 0.164551H387.779L389.679 15.0646H389.339L388.999 13.9146C388.099 11.5646 387.089 9.74455 385.989 8.46455C384.889 7.18455 383.329 6.25455 381.319 5.68455C379.309 5.12455 376.569 4.83455 373.089 4.83455H369.089V26.2346H373.829C376.539 26.1945 378.569 25.5646 379.919 24.3745C381.279 23.1745 382.199 21.2945 382.699 18.7146H383.039V35.5146H382.699C382.199 32.5846 381.279 30.4346 379.919 29.0846C378.569 27.7346 376.539 27.0345 373.829 26.9846H369.089V51.5746H373.289C377.489 51.5345 380.859 51.1046 383.409 50.2846C385.959 49.4646 387.959 48.2645 389.399 46.6646C390.849 45.0646 392.059 42.8846 393.059 40.1246L393.669 38.4346H394.009L391.429 52.3246H357.289V51.9846V51.9746Z" fill="white"/>
<path d="M8.53023 73.9644L7.46023 74.6144C7.23023 74.3044 6.90023 74.0544 6.46023 73.8444C6.02023 73.6444 5.55023 73.5444 5.04023 73.5444C3.97023 73.5444 3.10023 73.8544 2.43023 74.4644C1.76023 75.0744 1.43023 75.8544 1.43023 76.7944C1.43023 77.7344 1.76023 78.4944 2.42023 79.1044C3.08023 79.7144 3.94023 80.0244 5.02023 80.0244C6.10023 80.0244 6.96023 79.6744 7.57023 78.9744L8.60023 79.6244C7.71024 80.5544 6.52023 81.0144 5.02023 81.0144C3.52023 81.0144 2.30023 80.6144 1.38023 79.8144C0.450234 79.0144 -0.00976562 78.0044 -0.00976562 76.7844C-0.00976562 75.5644 0.450234 74.5444 1.38023 73.7444C2.30023 72.9444 3.52023 72.5444 5.02023 72.5444C5.69023 72.5444 6.34023 72.6644 6.98023 72.9044C7.62023 73.1444 8.13023 73.4844 8.52024 73.9344L8.53023 73.9644Z" fill="white"/>
<path d="M28.7597 74.5447C28.7597 73.8547 28.7297 73.2647 28.6797 72.7747H29.9897C30.0397 73.3447 30.0697 73.8047 30.0697 74.1547H30.1097C30.3797 73.6847 30.7797 73.3047 31.3297 73.0147C31.8697 72.7247 32.4697 72.5747 33.1297 72.5747C33.4897 72.5747 33.7897 72.6047 34.0297 72.6647L33.8497 73.7647C33.6397 73.6947 33.3097 73.6647 32.8897 73.6647C32.0997 73.6647 31.4397 73.9247 30.9197 74.4347C30.3997 74.9447 30.1397 75.7047 30.1397 76.7147V80.8447H28.7697V74.5647L28.7597 74.5447Z" fill="white"/>
<path d="M62.2302 76.5647C62.2302 76.7947 62.2302 76.9747 62.2102 77.1147H54.4102C54.4402 77.9247 54.7802 78.6147 55.4402 79.1847C56.1002 79.7547 56.9002 80.0347 57.8502 80.0347C58.5102 80.0347 59.1002 79.9047 59.6402 79.6347C60.1802 79.3647 60.5902 79.0347 60.8702 78.6447L61.9002 79.3347C60.8502 80.4647 59.5102 81.0347 57.8602 81.0347C56.4702 81.0347 55.3002 80.6347 54.3802 79.8347C53.4502 79.0347 52.9902 78.0247 52.9902 76.8047C52.9902 75.5847 53.4502 74.5947 54.3602 73.7847C55.2702 72.9747 56.4002 72.5747 57.7402 72.5747C59.1602 72.5747 60.2702 72.9547 61.0602 73.7047C61.8502 74.4547 62.2502 75.4147 62.2502 76.5647H62.2302ZM54.4302 76.1847H60.8502C60.8102 75.4047 60.5202 74.7747 59.9702 74.2847C59.4302 73.7947 58.6802 73.5547 57.7302 73.5547C56.8402 73.5547 56.0902 73.8147 55.4702 74.3347C54.8502 74.8547 54.5002 75.4747 54.4302 76.1847Z" fill="white"/>
<path d="M89.0111 75.8945V75.6345C89.0111 74.2445 88.1711 73.5545 86.5011 73.5545C85.3711 73.5545 84.4411 73.8745 83.7011 74.5045L82.9411 73.7345C83.8411 72.9645 85.0711 72.5845 86.6411 72.5845C87.7111 72.5845 88.5911 72.8345 89.2711 73.3445C89.9511 73.8445 90.3011 74.5745 90.3011 75.5145V79.0345C90.3011 79.7545 90.3511 80.3545 90.4611 80.8445H89.2311C89.1411 80.3845 89.0911 79.9545 89.0911 79.5345H89.0511C88.2311 80.5445 87.0911 81.0445 85.6311 81.0445C84.7911 81.0445 84.0311 80.8445 83.3711 80.4345C82.7111 80.0245 82.3711 79.4145 82.3711 78.6045C82.3711 78.2045 82.4511 77.8545 82.6111 77.5445C82.7711 77.2445 83.0111 76.9945 83.3311 76.7945C83.6511 76.5945 84.0011 76.4445 84.3811 76.3245C84.7611 76.2045 85.2211 76.1145 85.7711 76.0445C86.3211 75.9845 86.8311 75.9445 87.3111 75.9245C87.7911 75.9045 88.3511 75.8945 89.0111 75.8945ZM89.0111 76.8045H88.6111C87.9711 76.8045 87.3911 76.8245 86.8911 76.8645C86.3911 76.9045 85.8811 76.9845 85.3811 77.0945C84.8811 77.2045 84.4811 77.3845 84.2011 77.6245C83.9211 77.8645 83.7811 78.1645 83.7811 78.5345C83.7811 79.0645 83.9911 79.4445 84.4211 79.6945C84.8511 79.9445 85.3711 80.0645 85.9911 80.0645C86.9211 80.0645 87.6511 79.8045 88.1911 79.2945C88.7311 78.7845 89.0011 78.1445 89.0011 77.4045V76.8045H89.0111Z" fill="white"/>
<path d="M115.88 72.7746V73.7546H113.23V78.4446C113.23 79.0046 113.35 79.3946 113.59 79.6046C113.83 79.8146 114.18 79.9246 114.64 79.9246C115.03 79.9246 115.42 79.8346 115.83 79.6646L115.89 80.6746C115.39 80.8346 114.86 80.9146 114.28 80.9146C113.64 80.9146 113.07 80.7546 112.59 80.4346C112.11 80.1146 111.87 79.5546 111.87 78.7646V73.7446H109.92V72.7646H111.87V70.4946H113.24V72.7646H115.89L115.88 72.7746Z" fill="white"/>
<path d="M137.409 69.0945C137.599 69.2545 137.699 69.4545 137.699 69.6745C137.699 69.8945 137.599 70.0945 137.409 70.2545C137.219 70.4145 136.989 70.4945 136.739 70.4945C136.489 70.4945 136.259 70.4145 136.069 70.2545C135.879 70.0945 135.779 69.8945 135.779 69.6745C135.779 69.4545 135.879 69.2545 136.069 69.0945C136.259 68.9345 136.489 68.8545 136.739 68.8545C136.989 68.8545 137.219 68.9345 137.409 69.0945ZM137.409 72.7745V80.8245H136.039V72.7745H137.409Z" fill="white"/>
<path d="M166.77 72.7744L162.95 80.8244H161.44L157.6 72.7744H159.13L162.19 79.5844H162.23L165.31 72.7744H166.78H166.77Z" fill="white"/>
<path d="M195.49 76.5647C195.49 76.7947 195.49 76.9747 195.47 77.1147H187.67C187.7 77.9247 188.04 78.6147 188.7 79.1847C189.36 79.7547 190.16 80.0347 191.11 80.0347C191.77 80.0347 192.36 79.9047 192.9 79.6347C193.44 79.3647 193.85 79.0347 194.13 78.6447L195.16 79.3347C194.11 80.4647 192.77 81.0347 191.12 81.0347C189.73 81.0347 188.56 80.6347 187.64 79.8347C186.71 79.0347 186.25 78.0247 186.25 76.8047C186.25 75.5847 186.71 74.5947 187.62 73.7847C188.53 72.9747 189.66 72.5747 191 72.5747C192.42 72.5747 193.53 72.9547 194.32 73.7047C195.11 74.4547 195.51 75.4147 195.51 76.5647H195.49ZM187.69 76.1847H194.11C194.07 75.4047 193.78 74.7747 193.23 74.2847C192.69 73.7947 191.94 73.5547 190.99 73.5547C190.1 73.5547 189.35 73.8147 188.73 74.3347C188.11 74.8547 187.76 75.4747 187.69 76.1847Z" fill="white"/>
<path d="M245.441 75.8945V75.6345C245.441 74.2445 244.601 73.5545 242.931 73.5545C241.801 73.5545 240.871 73.8745 240.131 74.5045L239.371 73.7345C240.271 72.9645 241.501 72.5845 243.071 72.5845C244.141 72.5845 245.021 72.8345 245.711 73.3445C246.391 73.8445 246.731 74.5745 246.731 75.5145V79.0345C246.731 79.7545 246.781 80.3545 246.891 80.8445H245.661C245.571 80.3845 245.521 79.9545 245.521 79.5345H245.481C244.661 80.5445 243.521 81.0445 242.061 81.0445C241.211 81.0445 240.461 80.8445 239.801 80.4345C239.141 80.0245 238.801 79.4145 238.801 78.6045C238.801 78.2045 238.881 77.8545 239.041 77.5445C239.201 77.2445 239.441 76.9945 239.761 76.7945C240.081 76.5945 240.431 76.4445 240.811 76.3245C241.181 76.2045 241.651 76.1145 242.201 76.0445C242.751 75.9845 243.261 75.9445 243.741 75.9245C244.211 75.9045 244.781 75.8945 245.441 75.8945ZM245.441 76.8045H245.041C244.401 76.8045 243.821 76.8245 243.321 76.8645C242.821 76.9045 242.321 76.9845 241.811 77.0945C241.301 77.2045 240.921 77.3845 240.631 77.6245C240.341 77.8645 240.211 78.1645 240.211 78.5345C240.211 79.0645 240.431 79.4445 240.851 79.6945C241.281 79.9445 241.801 80.0645 242.421 80.0645C243.341 80.0645 244.081 79.8045 244.621 79.2945C245.161 78.7845 245.431 78.1445 245.431 77.4045V76.8045H245.441Z" fill="white"/>
<path d="M267.78 83.3347L268.77 82.4447C269.16 82.8647 269.68 83.2247 270.34 83.5047C271 83.7847 271.68 83.9247 272.37 83.9247C273.64 83.9247 274.58 83.6347 275.17 83.0447C275.76 82.4647 276.06 81.6947 276.06 80.7547V79.2447H276.02C275.67 79.7247 275.17 80.1147 274.5 80.3947C273.84 80.6847 273.16 80.8247 272.46 80.8247C271.01 80.8247 269.84 80.4447 268.94 79.6747C268.04 78.9047 267.59 77.9247 267.59 76.7347C267.59 75.5447 268.04 74.5747 268.95 73.7747C269.85 72.9747 271.02 72.5747 272.46 72.5747C273.17 72.5747 273.85 72.7147 274.5 72.9947C275.15 73.2747 275.66 73.6647 276.02 74.1747H276.06V72.7847H277.43V80.7647C277.43 81.2547 277.35 81.7247 277.2 82.1747C277.04 82.6247 276.79 83.0647 276.44 83.5047C276.09 83.9447 275.56 84.2947 274.86 84.5647C274.16 84.8247 273.31 84.9547 272.32 84.9547C271.46 84.9547 270.63 84.8147 269.84 84.5247C269.04 84.2347 268.36 83.8447 267.8 83.3347H267.78ZM269.98 74.4647C269.34 75.0747 269.02 75.8147 269.02 76.6947C269.02 77.5747 269.34 78.3247 269.98 78.9247C270.62 79.5247 271.48 79.8247 272.58 79.8247C273.68 79.8247 274.51 79.5347 275.18 78.9547C275.86 78.3747 276.2 77.6247 276.2 76.6947C276.2 75.8347 275.85 75.0947 275.16 74.4747C274.47 73.8547 273.61 73.5447 272.58 73.5447C271.48 73.5447 270.61 73.8447 269.98 74.4547V74.4647Z" fill="white"/>
<path d="M307.57 76.5647C307.57 76.7947 307.57 76.9747 307.55 77.1147H299.75C299.77 77.9247 300.12 78.6147 300.77 79.1847C301.42 79.7547 302.23 80.0347 303.18 80.0347C303.84 80.0347 304.43 79.9047 304.97 79.6347C305.51 79.3647 305.92 79.0347 306.2 78.6447L307.23 79.3347C306.18 80.4647 304.84 81.0347 303.19 81.0347C301.8 81.0347 300.63 80.6347 299.71 79.8347C298.79 79.0347 298.32 78.0247 298.32 76.8047C298.32 75.5847 298.78 74.5947 299.69 73.7847C300.6 72.9747 301.73 72.5747 303.07 72.5747C304.49 72.5747 305.6 72.9547 306.39 73.7047C307.18 74.4547 307.58 75.4147 307.58 76.5647H307.57ZM299.77 76.1847H306.19C306.15 75.4047 305.86 74.7747 305.31 74.2847C304.77 73.7947 304.02 73.5547 303.07 73.5547C302.18 73.5547 301.43 73.8147 300.81 74.3347C300.19 74.8547 299.84 75.4747 299.78 76.1847H299.77Z" fill="white"/>
<path d="M328.451 72.7745H329.761C329.811 73.3445 329.841 73.8045 329.841 74.1545H329.881C330.131 73.6945 330.571 73.3145 331.181 73.0145C331.791 72.7145 332.431 72.5645 333.101 72.5645C334.271 72.5645 335.151 72.8645 335.771 73.4545C336.381 74.0545 336.681 74.8545 336.681 75.8745V80.8145H335.311V76.3645C335.311 75.4545 335.121 74.7645 334.741 74.2745C334.361 73.7845 333.701 73.5445 332.761 73.5445C331.971 73.5445 331.301 73.8145 330.741 74.3645C330.181 74.9145 329.911 75.6845 329.911 76.6945V80.8245H328.541V74.5445C328.541 73.8545 328.511 73.2645 328.461 72.7745H328.451Z" fill="white"/>
<path d="M366.081 73.9644L365.011 74.6144C364.781 74.3044 364.451 74.0544 364.011 73.8444C363.571 73.6444 363.101 73.5444 362.591 73.5444C361.521 73.5444 360.651 73.8544 359.991 74.4644C359.321 75.0744 358.991 75.8544 358.991 76.7944C358.991 77.7344 359.321 78.4944 359.981 79.1044C360.641 79.7144 361.501 80.0244 362.571 80.0244C363.641 80.0244 364.511 79.6744 365.131 78.9744L366.151 79.6244C365.261 80.5544 364.071 81.0144 362.571 81.0144C361.071 81.0144 359.851 80.6144 358.931 79.8144C358.011 79.0144 357.541 78.0044 357.541 76.7844C357.541 75.5644 358.001 74.5444 358.931 73.7444C359.861 72.9444 361.071 72.5444 362.571 72.5444C363.241 72.5444 363.901 72.6644 364.531 72.9044C365.171 73.1444 365.681 73.4844 366.071 73.9344L366.081 73.9644Z" fill="white"/>
<path d="M386.36 72.7744L389.56 79.5644H389.6L392.52 72.7744H394.01L389.32 82.9044C389.01 83.5844 388.63 84.0944 388.18 84.4344C387.73 84.7744 387.12 84.9544 386.36 84.9544C385.94 84.9544 385.53 84.9244 385.13 84.8544L385.27 83.7844C385.59 83.8744 385.93 83.9244 386.28 83.9244C386.72 83.9244 387.08 83.8044 387.36 83.5744C387.63 83.3344 387.88 82.9844 388.09 82.5044L388.86 80.8144L384.84 72.7844H386.37L386.36 72.7744Z" fill="white"/>
</g>
<defs>
<clipPath id="clip0_265_1352">
<rect width="394" height="84.91" fill="white" transform="translate(0 0.0444336)"/>
</clipPath>
</defs>
</svg>
