<svg width="81" height="81" viewBox="0 0 81 81" fill="none" xmlns="http://www.w3.org/2000/svg">
<path fill-rule="evenodd" clip-rule="evenodd" d="M10.1123 0.0361328C4.58946 0.0361328 0.112305 4.51329 0.112305 10.0361V70.0361C0.112305 75.559 4.58946 80.0361 10.1123 80.0361H31.6913V53.1189H21.1649V40.1459L31.6913 40.1462C29.586 29.3354 30.6386 7.71343 56.9544 14.2002V24.3344C51.7641 24.3344 48.9003 24.3344 47.3203 25.7585C45.3755 27.5115 45.3755 31.4221 45.3755 40.1462H56.9544L54.8491 52.0381H45.3755V80.0361H70.1123C75.6352 80.0361 80.1123 75.559 80.1123 70.0361V10.0361C80.1123 4.51329 75.6352 0.0361328 70.1123 0.0361328H10.1123Z" fill="white"/>
</svg>
