<svg width="81" height="81" viewBox="0 0 81 81" fill="none" xmlns="http://www.w3.org/2000/svg">
<path d="M56.9016 0.0361328H23.3649C8.79761 0.0361328 0.113281 8.71613 0.113281 23.2761V56.7561C0.113281 71.3561 8.79761 80.0361 23.3649 80.0361H56.8616C71.4288 80.0361 80.1131 71.3561 80.1131 56.7961V23.2761C80.1532 8.71613 71.4688 0.0361328 56.9016 0.0361328ZM40.1332 55.5561C31.569 55.5561 24.6055 48.5961 24.6055 40.0361C24.6055 31.4761 31.569 24.5161 40.1332 24.5161C48.6975 24.5161 55.661 31.4761 55.661 40.0361C55.661 48.5961 48.6975 55.5561 40.1332 55.5561ZM63.825 19.5561C63.6249 20.0361 63.3448 20.4761 62.9846 20.8761C62.5844 21.2361 62.1442 21.5161 61.6639 21.7161C61.1837 21.9161 60.6635 22.0361 60.1432 22.0361C59.0627 22.0361 58.0622 21.6361 57.3018 20.8761C56.9416 20.4761 56.6615 20.0361 56.4614 19.5561C56.2613 19.0761 56.1412 18.5561 56.1412 18.0361C56.1412 17.5161 56.2613 16.9961 56.4614 16.5161C56.6615 15.9961 56.9416 15.5961 57.3018 15.1961C58.2222 14.2761 59.6229 13.8361 60.9036 14.1161C61.1837 14.1561 61.4238 14.2361 61.6639 14.3561C61.9041 14.4361 62.1442 14.5561 62.3843 14.7161C62.5844 14.8361 62.7845 15.0361 62.9846 15.1961C63.3448 15.5961 63.6249 15.9961 63.825 16.5161C64.0251 16.9961 64.1452 17.5161 64.1452 18.0361C64.1452 18.5561 64.0251 19.0761 63.825 19.5561Z" fill="white"/>
</svg>
