<svg width="81" height="81" viewBox="0 0 81 81" fill="none" xmlns="http://www.w3.org/2000/svg">
<path fill-rule="evenodd" clip-rule="evenodd" d="M10.1133 0.0361328C4.59043 0.0361328 0.113281 4.51329 0.113281 10.0361V70.0361C0.113281 75.559 4.59043 80.0361 10.1133 80.0361H70.1133C75.6361 80.0361 80.1133 75.559 80.1133 70.0361V10.0361C80.1133 4.51329 75.6361 0.0361328 70.1133 0.0361328H10.1133ZM23.4048 22.4791C26.8929 22.4791 29.7206 19.575 29.7206 15.9926C29.7206 12.4102 26.8929 9.50615 23.4048 9.50615C19.9167 9.50615 17.089 12.4102 17.089 15.9926C17.089 19.575 19.9167 22.4791 23.4048 22.4791ZM17.6153 27.3305C17.6153 26.7782 18.0631 26.3305 18.6153 26.3305H30.0981C30.6504 26.3305 31.0981 26.7782 31.0981 27.3305V62.0872C31.0981 62.6395 30.6504 63.0872 30.0981 63.0872H18.6153C18.0631 63.0872 17.6153 62.6395 17.6153 62.0872V27.3305ZM34.6639 26.3305C34.1116 26.3305 33.6639 26.7782 33.6639 27.3305V62.0872C33.6639 62.6395 34.1116 63.0872 34.6639 63.0872H45.5627C46.115 63.0872 46.5627 62.6395 46.5627 62.0872V41.5879C47.5849 36.9754 52.28 34.1193 55.6373 37.2732C56.1249 37.7312 56.2103 38.4191 56.2954 39.2145V62.5602C56.2954 63.1125 56.7431 63.5602 57.2954 63.5602H68.0586C68.6109 63.5602 69.0586 63.1125 69.0586 62.5602V35.9521C69.0586 35.8314 69.0158 35.7207 68.9446 35.6343C67.8192 26.5678 55.2278 21.8506 46.5627 28.5635V27.3305C46.5627 26.7782 46.115 26.3305 45.5627 26.3305H34.6639Z" fill="white"/>
</svg>
