<svg width="81" height="81" viewBox="0 0 81 81" fill="none" xmlns="http://www.w3.org/2000/svg">
<path fill-rule="evenodd" clip-rule="evenodd" d="M10.1133 0.0361328C4.59043 0.0361328 0.113281 4.51329 0.113281 10.0361V70.0361C0.113281 75.559 4.59043 80.0361 10.1133 80.0361H70.1133C75.6361 80.0361 80.1133 75.559 80.1133 70.0361V10.0361C80.1133 4.51329 75.6361 0.0361328 70.1133 0.0361328H10.1133ZM41.4479 54.1987C41.6595 53.3781 41.6604 52.5032 41.6833 30.509C41.6951 19.2144 41.6833 7.6037 41.6833 7.6037H47.0961C51.586 7.6037 52.3351 7.6037 52.4611 7.88387C52.4863 7.93997 52.4865 8.00729 52.4868 8.0881C52.4877 8.35448 52.5455 9.00847 52.6151 9.54131C52.6847 10.0742 52.7861 10.7177 52.8403 10.9715C52.8945 11.2252 53.0622 11.8272 53.2128 12.3093C53.3636 12.7914 53.7213 13.6888 54.008 14.3035C54.2947 14.9181 54.7432 15.7485 55.0048 16.1488C55.2665 16.5491 55.717 17.1753 56.006 17.5406C56.295 17.9058 56.8844 18.5406 57.3158 18.9513C57.7471 19.362 58.4638 19.9667 58.9085 20.2949C59.3532 20.6231 60.2426 21.1605 60.885 21.489C61.5273 21.8175 62.4167 22.2091 62.8614 22.3592C63.3061 22.5094 64.0883 22.7193 64.5997 22.8258C65.1109 22.9323 65.8588 23.0408 66.2617 23.0669C66.6644 23.093 67.578 23.1511 67.578 23.1511V28.7346V34.2978C67.578 34.2978 65.4219 34.1264 64.9277 34.0755C64.4336 34.0246 63.6655 33.9201 63.2208 33.8435C62.7761 33.7667 61.9347 33.5807 61.3509 33.43C60.7671 33.2793 59.8575 33.0068 59.3295 32.8244C58.8015 32.642 57.8672 32.2652 57.2532 31.9873C56.6393 31.7093 55.7297 31.251 55.2319 30.9689C54.7341 30.6867 53.9307 30.1927 53.4467 29.8712C52.9627 29.5496 52.5483 29.2865 52.5258 29.2865C52.5034 29.2865 52.485 34.6174 52.485 41.133C52.485 48.6947 52.4511 53.3252 52.3912 53.9351C52.3396 54.4606 52.1963 55.4096 52.0728 56.044C51.9491 56.6783 51.6699 57.7464 51.4521 58.4174C51.2345 59.0885 50.8393 60.1057 50.574 60.678C50.3088 61.2502 49.8575 62.1126 49.5712 62.5945C49.285 63.0763 48.7622 63.8649 48.4096 64.3469C48.0569 64.8289 47.3642 65.6545 46.8701 66.1815C46.376 66.7087 45.5674 67.4742 45.0733 67.8828C44.5792 68.2913 43.7862 68.8875 43.311 69.2075C42.8359 69.5275 41.8656 70.0785 41.1549 70.4319C40.4442 70.7853 39.3775 71.2386 38.7846 71.4394C38.1916 71.6402 37.3101 71.8919 36.8256 71.999C36.3411 72.106 35.4318 72.2552 34.8048 72.3306C34.1778 72.4059 33.1737 72.4675 32.5733 72.4675C31.9729 72.4675 31.0631 72.424 30.5514 72.3708C30.0396 72.3177 29.2167 72.1905 28.7226 72.0883C28.2285 71.9861 27.472 71.7988 27.0416 71.672C26.6112 71.5452 25.859 71.2813 25.3701 71.0856C24.8812 70.89 24.1418 70.5557 23.727 70.3428C23.3122 70.1299 22.6353 69.7475 22.2227 69.4929C21.8101 69.2383 21.0638 68.7177 20.5641 68.3358C20.0645 67.9539 19.254 67.2429 18.763 66.7559C18.2721 66.2689 17.5658 65.4967 17.1935 65.04C16.8213 64.5833 16.2244 63.7529 15.8672 63.1947C15.5099 62.6364 15.0138 61.7719 14.7647 61.2734C14.5157 60.7749 14.1509 59.9441 13.9541 59.4272C13.7573 58.9102 13.4751 58.0438 13.3269 57.5019C13.1787 56.9599 12.9647 55.9845 12.8514 55.3344C12.6734 54.3134 12.6457 53.851 12.6484 51.9381C12.6506 50.2665 12.6895 49.4984 12.8068 48.805C12.8922 48.2997 13.0608 47.4867 13.1812 46.9985C13.3017 46.5103 13.5459 45.6781 13.7238 45.1492C13.9017 44.6204 14.283 43.6894 14.5712 43.0804C14.8594 42.4715 15.3245 41.5995 15.6047 41.1428C15.885 40.6861 16.3411 40.0023 16.6183 39.6234C16.8955 39.2443 17.4462 38.5632 17.842 38.1098C18.2379 37.6563 19.0035 36.8975 19.5435 36.4236C20.0834 35.9497 20.9494 35.2715 21.468 34.9165C21.9866 34.5616 22.9214 34.0055 23.5453 33.6808C24.1694 33.3561 25.0808 32.9371 25.5709 32.7497C26.061 32.5622 26.9064 32.2891 27.4496 32.1428C27.9928 31.9964 28.8653 31.8026 29.3885 31.7122C30.1171 31.5862 30.849 31.4653 32.5005 31.465C33.6863 31.4648 35.1941 31.6583 35.1941 31.6583C35.1941 31.6583 35.1461 31.8342 35.1461 37.3155C35.1461 40.4101 35.197 43.0675 35.197 43.0675C35.2164 43.0984 35.1188 43.0532 34.9823 42.9898C34.8402 42.9238 34.6558 42.8382 34.5172 42.7985C34.2454 42.7209 33.5549 42.6326 32.9825 42.6023C32.3461 42.5686 31.6544 42.5904 31.2017 42.6584C30.7945 42.7195 30.151 42.8729 29.7717 42.9993C29.3923 43.1256 28.7799 43.3816 28.4107 43.568C28.0414 43.7544 27.435 44.1395 27.0631 44.4236C26.6911 44.7078 26.1414 45.2109 25.8415 45.5414C25.5417 45.8719 25.1058 46.4367 24.8729 46.7966C24.6399 47.1564 24.3281 47.7255 24.1799 48.0614C24.0316 48.3971 23.8078 49.0539 23.6825 49.5207C23.5166 50.1391 23.4413 50.695 23.4052 51.569C23.3676 52.479 23.3919 52.966 23.5061 53.5871C23.5889 54.0373 23.7746 54.7377 23.9188 55.1435C24.063 55.5493 24.3242 56.149 24.4993 56.4762C24.6745 56.8035 24.9873 57.3072 25.1946 57.5956C25.4019 57.884 25.8436 58.3932 26.1764 58.7271C26.509 59.0611 27.065 59.5298 27.4117 59.7687C27.7585 60.0077 28.2762 60.3103 28.562 60.4412C28.848 60.5722 29.3043 60.7595 29.5761 60.8574C29.8478 60.9554 30.34 61.0946 30.6698 61.1666C30.9996 61.2387 31.592 61.3253 31.9862 61.3591C32.4062 61.3951 33.0693 61.3733 33.5876 61.3065C34.0742 61.2439 34.7957 61.0889 35.191 60.9624C35.5863 60.8357 36.2286 60.5695 36.6185 60.3706C37.0084 60.1719 37.5743 59.8276 37.8763 59.6058C38.1782 59.3839 38.6983 58.9199 39.0321 58.5746C39.3659 58.2293 39.8439 57.6422 40.0945 57.2701C40.3451 56.8979 40.6921 56.2775 40.8658 55.8913C41.0395 55.5053 41.2891 54.79 41.4205 54.3019C41.43 54.2666 41.4392 54.2327 41.4479 54.1987Z" fill="white"/>
</svg>
